<?xml version="1.0" encoding="utf-8"?>
<!-- Generator: Adobe Illustrator 16.0.0, SVG Export Plug-In . SVG Version: 6.00 Build 0)  -->
<!DOCTYPE svg PUBLIC "-//W3C//DTD SVG 1.1//EN" "http://www.w3.org/Graphics/SVG/1.1/DTD/svg11.dtd">
<svg id="hamburger" xmlns="http://www.w3.org/2000/svg" width="40" height="35">
  <path fill="#FFF" d="M40 2.5A2.5 2.5 0 0 1 37.5 5h-35a2.5 2.5 0 1 1 0-5h35A2.5 2.5 0 0 1 40 2.5zM40 17.5a2.5 2.5 0 0 1-2.5 2.5h-35a2.5 2.5 0 1 1 0-5h35a2.5 2.5 0 0 1 2.5 2.5zM40 32.5a2.5 2.5 0 0 1-2.5 2.5h-35a2.5 2.5 0 1 1 0-5h35a2.5 2.5 0 0 1 2.5 2.5z"/>
</svg>